Patient4_TMGait_0pt7_02_left_03_EMG.mot
version=1
nRows=40
nColumns=33
inDegrees=no
endheader
time	1LAddLong	2LGlutMax	3LGlutMed	4LIliopsoas	5LSemiMemb	6LBicFemLong	7LRecFem	8LVastMed	9LVastLat	10LGasMed	11LTibAnt	12lTibPost	13LPeroneusLong	14LSol	15LExtDigLong	16LFlexDigLong	17RAddLong	18RGlutMax	19RGlutMed	20RIliopsoas	21RSemiMemb	22RBicFemLong	23RRecFem	24RVastMed	25RVastLat	26RGasMed	27RTibAnt	28RTibPost	29RPeroneusLong	30RSol	31RExtDigLong	32RFlexDigLong
3.01	0.015717	1.0356	-0.002136	0.016785	-0.008545	-0.027466	0.24002	0.018463	0.23544	-0.033875	-0.084381	0.009613	0.10117	0.007019	-0.28381	-0.001984	0.041351	-0.050964	0.3183	0.036163	0.008698	0.17868	0.17532	0.050964	0.050659	0.10757	-0.029449	-0.10834	0.17975	0.43976	-0.000458	0.002747
3.011	0.001984	1.0747	0.001984	0.006256	-0.009155	0.008545	0.23804	0.022278	0.2385	-0.014801	-0.057678	0.000458	0.10208	0.011444	-0.2272	-0.010986	0.041962	-0.092316	0.37033	-0.070038	-0.19898	0.067444	0.036621	0.08194	0.088654	0.067902	-0.63675	0.16251	0.42419	0.18066	0.007172	0.006714
3.012	0.006256	1.0934	0.016327	-0.011597	-0.015259	0.015717	0.21561	0.023499	0.2504	0.009155	-0.033112	0.006714	0.0737	0.046844	-0.06424	-0.002136	0.020599	-0.028839	0.28442	-0.12421	-0.21515	0.019226	0.041656	0.0737	0.049896	0.066833	-0.74417	0.2063	0.30548	0.096893	-0.008392	0.009308
3.013	-0.003967	1.0883	0.003204	-0.029755	-0.011902	0.011139	0.21484	0.023346	0.24704	0.02121	-0.041809	0.005188	0.037842	-0.02182	0.054474	-0.005341	0.019989	-0.02182	0.43549	-0.10117	-0.14267	0.047913	-0.15488	0.055542	0.00473	0.061798	-0.31723	0.038452	0.028534	-0.043793	-0.00473	-0.001678
3.014	0.01358	1.0567	0.027618	-0.022278	-0.010223	0.023193	0.18585	0.036011	0.26154	0.03006	0.040131	0.003662	0.00885	-0.068054	0.2034	-0.010834	0.007172	-0.081635	0.4068	-0.11566	-0.038757	-0.024109	-0.40375	0.10529	0.024719	0.000153	-0.028839	-0.045776	-0.16586	-0.29678	-0.002136	-0.010986
3.015	0.002899	0.97366	0.035858	-0.005951	-0.013733	0.016785	0.17273	0.022888	0.25513	0.016479	0.037079	0.00473	0.059204	-0.086517	0.072021	-0.016022	0.018463	-0.17563	0.45487	-0.12878	0.16937	-0.11505	-0.36667	0.07782	0.11414	-0.066071	0.060883	-0.049591	-0.1416	-0.19669	-0.000916	0.006714
3.016	-0.03418	0.9053	-0.032043	-0.020142	-0.012817	0.010223	0.17716	0.02182	0.26901	-0.003052	-0.040283	0.001221	0.075684	-0.041809	0.008698	-0.011139	0.055847	-0.16083	0.31204	-0.056305	0.10712	-0.23438	-0.059662	0.049133	0.090179	-0.10254	0.21027	-0.021667	-0.052948	-0.18875	-0.003815	0.009308
3.017	-0.029907	0.84366	-0.055389	0.008698	-0.007935	-0.005798	0.14908	0.02243	0.27557	-0.012817	0.01236	0.005035	0.097656	-0.020905	0.051422	-0.020905	0.014496	-0.13489	0.056458	0.088501	-0.003662	-0.28168	-0.034637	0.10391	0.033569	-0.012054	0.13473	-0.008392	-0.0383	-0.31235	-0.002899	0.000153
3.018	0.013275	0.81741	-0.03952	0.007782	-0.007477	-0.008087	0.15335	0.024414	0.28153	0.00351	0.15167	-0.000153	0.031433	-0.029602	0.075989	-0.026703	-0.020142	-0.097504	0.13229	0.11169	-0.059052	-0.31708	-0.014648	0.045166	-0.023499	0.12619	0.071411	0.056915	-0.03891	-0.40009	-0.001984	0.001984
3.019	0.005035	0.74982	-0.028687	-0.030365	0.001068	-0.036316	0.15289	0.018616	0.27252	-0.004272	0.1471	-0.001678	0.009003	-0.067444	0.1648	-0.027618	-0.016785	-0.060425	-0.023041	0.072784	-0.22781	-0.16953	-0.022278	0.002441	-0.045776	0.10941	0.26154	0.003662	-0.2272	-0.41306	-0.000763	-0.004425
3.02	0.018921	0.69565	-0.009308	0.006714	-0.008087	-0.04776	0.10727	0.016479	0.28336	-0.03418	0.025177	-0.001526	0.045776	0.00824	0.20706	-0.020142	-0.020447	-0.12589	0.35309	0.042572	-0.35751	-0.087891	0.074768	-0.01358	-0.042267	0.034637	0.39246	-0.054169	-0.26535	-0.27222	0.001526	-0.014343
3.021	0.00473	0.63095	-0.008392	0.000305	-0.003815	-0.031433	0.10132	0.016632	0.28564	-0.084839	0.036926	0.010071	0.13657	0.062561	0.29648	-0.015564	-0.036774	-0.18875	0.32501	0.028381	0.009613	-0.19272	0.058746	0.045471	-0.051727	0.007629	0.27817	-0.037689	-0.25467	-0.072021	-0.003052	-0.011902
3.022	-0.002441	0.61325	-0.019379	-0.004883	-0.008545	-0.028687	0.086975	0.017548	0.28	-0.082245	0.059052	-0.009308	0.1944	0.054474	-0.063324	-0.020905	-0.040894	-0.11368	0.03067	0.023956	0.060272	-0.13931	0.077667	0.12329	-0.015869	0.026245	-0.44754	-0.006256	-0.068207	-0.3595	-0.00061	-0.000458
3.023	-0.009613	0.59311	-0.015259	-0.045624	-0.006561	-0.034637	0.091248	0.015717	0.27237	-0.010071	0.019226	-0.011292	0.15518	0.054016	-0.032349	-0.027618	-0.020447	-0.10513	0.52292	-0.053558	-0.024872	-0.056305	0.11383	0.098419	-0.010986	0.055237	-1.1246	-0.024872	0.26657	-0.69321	-0.000916	0.00412
3.024	0.003967	0.54855	-0.029144	-0.022888	-0.014496	-0.019226	0.066833	0.013733	0.27374	0.059662	-0.068207	0.002899	0.086365	0.06485	-0.022278	-0.028992	0.026245	-0.1358	0.36819	-0.030365	0.17761	-0.067291	0.14343	0.057068	-0.009613	0.035095	-0.55878	-0.037537	0.27481	-0.47653	-0.004578	-0.002747
3.025	0.002441	0.51102	-0.031738	0.002289	-0.014343	-0.007935	0.074921	0.016327	0.26184	0.065308	-0.32242	0.009155	0.10376	-0.016785	-0.25452	-0.03006	0.043488	-0.08667	0.22522	-0.001984	0.345	-0.1091	0.26947	-0.005188	-0.025482	0.012512	0.090027	-0.043335	0.1062	-0.11124	-0.002747	-0.004272
3.026	0.002899	0.44784	-0.025024	0.00885	-0.017548	-0.002594	0.065308	0.017242	0.26138	0.016785	-0.22003	0.002899	0.1265	-0.080566	-0.068207	-0.031891	0.035095	-0.081177	0.089722	-0.028992	0.42404	-0.12512	0.22629	-0.029144	-0.039368	0.001526	0.45944	0.024567	0.087585	0.22751	-0.007629	-0.006409
3.027	0.00473	0.36179	-0.010223	-0.020447	-0.014191	0.015869	0.082397	0.011597	0.26382	0.022888	-0.057068	0.009155	0.090332	-0.032043	0.019531	-0.027771	-0.010986	-0.082397	0.056915	0.014954	-0.022888	-0.019531	0.011292	-0.10025	-0.005341	0.009308	0.42068	-0.009003	0.042419	0.40985	-0.005798	-0.016174
3.028	0.008087	0.35385	-0.014496	-0.021667	-0.02243	0.007782	0.061646	0.017548	0.24567	0.018921	0.10819	0.007629	0.091858	0.044861	0.031586	-0.015411	-0.044708	-0.050049	0.48614	0.019073	-0.95001	0.11246	-0.040741	-0.019684	0.025787	0.034943	0.37918	-0.025787	0.069885	0.29144	-0.006714	-0.007935
3.029	0.012665	0.31418	-0.033417	-0.031128	-0.022888	-0.001373	0.073395	0.009918	0.23666	0.00351	0.072479	0.00824	0.11032	0.042725	-0.042114	-0.020599	-0.016632	-0.097809	0.457	0.044861	-0.55069	-0.019073	0.14725	-0.029449	0.019836	0.003967	0.74219	-0.016327	0.24918	0.031433	-0.004883	0.003815
3.03	-0.002136	0.29404	-0.047607	-0.016174	-0.016022	-0.005188	0.077667	0.00946	0.22995	-0.003662	0.057678	0.007629	0.064087	0.036621	0.010071	-0.019684	0.013885	-0.15152	0.36789	0.093079	-0.034027	-0.020142	0.1561	-0.026855	0.023041	-0.029297	0.21622	0.033112	0.18188	0.15823	-0.005798	0.003967
3.031	0.003815	0.25589	-0.030975	-0.005341	-0.014954	-0.007324	0.060577	0.017548	0.22659	-0.012665	0.079651	-0.000153	0.029297	0.029144	0.11627	-0.026855	-0.011292	-0.077209	0.20889	0.071259	-0.0177	0.063782	-0.15854	-0.056763	0.020294	0.025635	-0.30243	0	0.14145	0.47394	-0.005798	-0.003815
3.032	-0.000916	0.26764	-0.012817	0.008392	-0.016632	0.013733	0.071716	0.013885	0.21729	-0.025635	0.13886	0.012054	-0.001984	0.015717	0.082245	-0.025177	-0.057526	-0.065002	0.23926	0.037079	-0.041199	0.03418	-0.34317	-0.03891	-0.002594	0.004425	-0.46356	-0.012054	0.1358	0.37827	-0.002899	0.001068
3.033	0.000153	0.20111	-0.007019	0.006561	-0.006866	0.010223	0.055847	0.019684	0.21576	-0.053864	0.054169	0.00885	0.032806	-0.042877	-0.112	-0.01358	-0.052795	-0.091553	0.28061	0.013428	-0.054169	-0.037537	-0.26855	-0.025024	0.05722	-0.06073	-0.85129	-0.017395	0.13962	0.25253	-0.006409	0.006714
3.034	0	0.15884	0.013428	0.005951	-0.014648	0.001221	0.068665	0.011902	0.20569	-0.035858	0.018463	0.01358	0.028381	-0.14084	-0.22522	-0.011292	-0.012207	-0.013123	0.056763	0.01297	-0.12726	-0.10422	-0.10635	0.058441	0.067139	-0.063019	-0.80994	-0.019836	0.14908	0.38803	-0.002747	0.011902
3.035	0.000458	0.1471	-0.014343	-0.007324	-0.020599	0.001678	0.065918	0.016479	0.19562	-0.005035	0.01358	0.007935	0.031281	-0.15701	-0.10178	-0.00824	0.004883	0.080109	-0.0737	0.020905	-0.11261	-0.22308	-0.050354	-0.045929	-0.052185	0.014343	-0.4451	-0.030365	0.063629	0.34882	-0.011597	-0.000153
3.036	-0.00061	0.11398	-0.018616	-0.015106	-0.007477	-0.014801	0.069733	0.01709	0.18723	0.00946	-0.046539	0.010071	0.041656	-0.10773	-0.016632	-0.009308	0.006866	0.12833	-0.16602	0.00473	0.21729	-0.31876	-0.12222	-0.096741	-0.047455	0.013123	-0.16174	0.037384	0.01297	0.13077	-0.007019	-0.005188
3.037	0.000458	0.061951	-0.0383	-0.028381	-0.010071	-0.020905	0.062561	0.012817	0.19699	0.013428	-0.010834	0.004272	0.005188	-0.013428	-0.047607	-0.000153	0.000458	0.16968	-0.26718	-0.017395	0.057831	-0.21912	-0.084534	-0.059814	0.001221	-0.018921	0.1236	0.017242	-0.11688	0.077667	-0.000916	-0.007935
3.038	0.004425	0.040894	-0.070953	-0.002289	-0.012817	-0.001526	0.03891	0.010071	0.19379	-0.004883	0.005188	0.015259	0.016785	0.014954	0.002289	-0.00885	-0.00824	0.082245	-0.15182	0.004425	-0.004578	-0.09491	-0.021973	-0.071564	0.036316	-0.000916	0.45563	-0.004425	-0.18997	0.17548	-0.003662	-0.00885
3.039	0.006256	-0.02243	-0.052795	-0.020752	-0.010071	-0.007782	0.039215	0.015411	0.19638	0.00473	0.041046	0.008698	0.017395	-0.04425	0.046539	-0.003967	-0.027618	0.12909	0.078735	0.015411	0.025787	-0.054779	-0.005951	-0.036316	0.059357	-0.032196	0.46539	-0.023499	-0.21851	0.13962	-0.001068	-0.011292
3.04	0.002594	-0.045166	-0.055695	-0.02655	-0.019531	-0.011902	0.034637	0.015411	0.18433	0.011749	0.040741	0.003052	0.038757	-0.061035	0.077515	0	-0.00946	0.15259	0.18585	0.02594	0.013428	-0.10208	-0.03479	0.044403	0.066833	-0.076904	0.30243	-0.010376	-0.063629	0.025787	0.000305	-0.009918
3.041	0.010071	-0.081024	-0.03952	-0.00061	-0.023041	-0.015564	0.022278	0.016632	0.18402	0.023499	-0.008545	-0.005493	0.042419	-0.058594	0.18051	-0.004578	0.010376	0.14908	0.40207	0.039215	0.059052	-0.13458	-0.083313	0.049744	0.051727	-0.042572	0.13779	0.046844	0.033417	0.01297	-0.001831	-0.002136
3.042	0.011902	-0.13229	0.005188	-0.021973	-0.020752	-0.058289	0.015106	0.007324	0.18326	0.016937	-0.03479	0.012207	0.051727	-0.042725	0.28656	0.012665	0.013123	0.08606	0.634	0.003967	0.059967	-0.13412	-0.016174	0.046539	0.016327	0.021057	-0.40344	0.007019	0.089264	-0.18707	-0.000458	-0.014038
3.043	0.019073	-0.12329	-0.028534	-0.010681	-0.009918	-0.050354	0.000763	0.010834	0.18265	-0.007172	-0.045929	0.014191	0.049896	0.08728	0.083618	0.004578	0.007477	0.11231	0.22003	0.022888	-0.02533	-0.19165	0.020142	0.031738	-0.00351	0.1149	-0.64362	-0.006104	0.016479	-0.19592	-0.003357	-0.006714
3.044	0.023651	-0.1387	-0.043335	-0.024109	0.001221	-0.062408	-0.013885	0.017548	0.18753	-0.039368	0.036926	0.013885	0.079498	0.12787	0.43488	0.003815	-0.001526	0.12909	-0.016174	0.002899	-0.17242	-0.14542	0.016632	-0.072937	-0.001984	0.081482	-0.54962	0.001526	-0.098114	-0.12802	-0.003662	-0.012817
3.045	0.022888	-0.11887	-0.036011	0.009918	-0.001984	-0.054779	0.006561	0.006256	0.17761	-0.048218	0.15457	0.013275	0.03891	0.022736	-0.14923	0.006409	0.023956	0.095978	-0.023651	0.007477	-0.2005	-0.024109	0.10437	-0.086212	-0.017548	0.041809	-0.57419	0.010834	-0.007172	0.11231	-0.004578	-0.007782
3.046	0.032196	-0.1564	-0.044098	0.018616	-0.012817	-0.04303	-0.003662	0.007935	0.159	-0.057526	0.23666	0.010681	0.011597	-0.043335	-0.064545	0.016937	0.032196	0.079041	-0.060272	0.006561	-0.20203	-0.11429	0.13473	-0.051117	-0.073547	0.00824	-0.46127	-0.00061	0.027618	0.33875	-0.002747	-0.009308
3.047	0.026398	-0.15991	-0.043335	0.02243	-0.005188	-0.069122	0.025482	0.012817	0.15259	-0.05722	0.092163	0.011444	0.001984	-0.084839	-0.19073	0.015411	0.031738	0.12878	-0.068512	0.005188	0.035858	-0.22369	0.20523	0.012665	-0.1503	-0.007324	-0.39383	0.000763	0.08316	-0.067596	-0.005798	-0.007019
3.048	0.015717	-0.15991	-0.053406	0.010529	-0.00946	-0.071869	0.007324	0.000458	0.15869	-0.11215	-0.15472	0.008698	0.075989	-0.13184	-0.14938	0.012207	0.01709	0.18463	-0.23743	0.023956	0.25879	-0.28656	0.36774	-0.10819	-0.17151	-0.004272	-0.090485	0.001373	0.014343	-0.3479	-0.003204	-0.003357
3.049	0.018311	-0.16144	-0.06012	-0.015869	-0.011749	-0.067139	0.037231	0.007935	0.13916	-0.14511	-0.1593	0.010681	0.069733	-0.072479	-0.12695	0.007782	0.012207	0.22736	-0.67871	0.03891	0.15991	-0.24551	0.28915	-0.20157	-0.13412	0.013428	0.11658	-0.003052	0.10284	-0.2626	-0.000153	0.003967
